# MagicaVoxel @ Ephtracy

# group
o 

# material
mtllib PlayerGun.mtl
usemtl palette

# normals
vn -1 0 0
vn 1 0 0
vn 0 0 1
vn 0 0 -1
vn 0 -1 0
vn 0 1 0

# texcoords
vt 0.00195313 0.5
vt 0.974609 0.5

# verts
v -0.3 0.2 0.2
v -0.3 0.2 0.1
v -0.3 0.2 -0.2
v -0.3 0.3 0.3
v -0.3 0.3 0.2
v -0.3 0.3 0.1
v -0.3 0.3 -0.2
v -0.3 0.3 -0.3
v -0.3 0.4 0.3
v -0.3 0.4 0.2
v -0.3 0.4 0
v -0.3 0.4 -0.2
v -0.3 0.4 -0.3
v -0.3 0.5 0.2
v -0.3 0.5 0
v -0.3 0.5 -0.2
v -0.2 0.1 0.2
v -0.2 0.1 -0.1
v -0.2 0.1 -0.2
v -0.2 0.2 0.3
v -0.2 0.2 0.2
v -0.2 0.2 0.1
v -0.2 0.2 -0.1
v -0.2 0.2 -0.2
v -0.2 0.2 -0.3
v -0.2 0.3 0.3
v -0.2 0.3 0.2
v -0.2 0.3 -0.2
v -0.2 0.3 -0.3
v -0.2 0.4 0.3
v -0.2 0.4 0.2
v -0.2 0.4 -0.2
v -0.2 0.4 -0.3
v -0.2 0.5 0.3
v -0.2 0.5 0.2
v -0.2 0.5 0.1
v -0.2 0.5 0
v -0.2 0.5 -0.2
v -0.2 0.5 -0.3
v -0.2 0.6 0.2
v -0.2 0.6 0.1
v -0.2 0.6 0
v -0.2 0.6 -0.2
v -0.1 0 0.1
v -0.1 0 0
v -0.1 0 -0.1
v -0.1 0.1 0.1
v -0.1 0.1 0
v -0.1 0.1 -0.1
v -0.1 0.6 0.1
v -0.1 0.6 0
v -0.1 0.6 -0.1
v -0.1 0.7 0.1
v -0.1 0.7 -0.1
v 0.1 0 0.1
v 0.1 0 -0.1
v 0.1 0.1 0.1
v 0.1 0.1 -0.1
v 0.1 0.6 0.1
v 0.1 0.6 0
v 0.1 0.6 -0.1
v 0.1 0.7 0.1
v 0.1 0.7 0
v 0.1 0.7 -0.1
v 0.2 0.1 0.2
v 0.2 0.1 0.1
v 0.2 0.1 -0.1
v 0.2 0.1 -0.2
v 0.2 0.2 0.3
v 0.2 0.2 0.2
v 0.2 0.2 0.1
v 0.2 0.2 -0.1
v 0.2 0.2 -0.2
v 0.2 0.2 -0.3
v 0.2 0.3 0.3
v 0.2 0.3 0.2
v 0.2 0.3 -0.2
v 0.2 0.3 -0.3
v 0.2 0.4 0.3
v 0.2 0.4 0.2
v 0.2 0.4 -0.2
v 0.2 0.4 -0.3
v 0.2 0.5 0.3
v 0.2 0.5 0.2
v 0.2 0.5 0
v 0.2 0.5 -0.2
v 0.2 0.5 -0.3
v 0.2 0.6 0.2
v 0.2 0.6 -0.2
v 0.3 0.2 0.2
v 0.3 0.2 -0.2
v 0.3 0.3 0.3
v 0.3 0.3 0.2
v 0.3 0.3 0.1
v 0.3 0.3 -0.2
v 0.3 0.3 -0.3
v 0.3 0.4 0.3
v 0.3 0.4 0.2
v 0.3 0.4 0.1
v 0.3 0.4 0
v 0.3 0.4 -0.2
v 0.3 0.4 -0.3
v 0.3 0.5 0.2
v 0.3 0.5 0
v 0.3 0.5 -0.2
v -0.3 0.3 0.3
v -0.3 0.4 0.3
v -0.2 0.2 0.3
v -0.2 0.3 0.3
v -0.2 0.4 0.3
v -0.2 0.5 0.3
v -0.1 0.2 0.3
v -0.1 0.3 0.3
v -0.1 0.4 0.3
v -0.1 0.5 0.3
v 0.2 0.2 0.3
v 0.2 0.3 0.3
v 0.2 0.4 0.3
v 0.2 0.5 0.3
v 0.3 0.3 0.3
v 0.3 0.4 0.3
v -0.3 0.2 0.2
v -0.3 0.3 0.2
v -0.3 0.4 0.2
v -0.3 0.5 0.2
v -0.2 0.1 0.2
v -0.2 0.2 0.2
v -0.2 0.3 0.2
v -0.2 0.4 0.2
v -0.2 0.5 0.2
v -0.2 0.6 0.2
v -0.1 0.2 0.2
v -0.1 0.5 0.2
v 0 0.1 0.2
v 0 0.2 0.2
v 0.2 0.1 0.2
v 0.2 0.2 0.2
v 0.2 0.3 0.2
v 0.2 0.4 0.2
v 0.2 0.5 0.2
v 0.2 0.6 0.2
v 0.3 0.2 0.2
v 0.3 0.3 0.2
v 0.3 0.4 0.2
v 0.3 0.5 0.2
v -0.1 0 0.1
v -0.1 0.1 0.1
v -0.1 0.6 0.1
v -0.1 0.7 0.1
v 0 0.1 0.1
v 0 0.6 0.1
v 0 0.7 0.1
v 0.1 0 0.1
v 0.1 0.1 0.1
v 0.1 0.6 0.1
v 0.1 0.7 0.1
v -0.1 0 -0.1
v -0.1 0.1 -0.1
v -0.1 0.6 -0.1
v -0.1 0.7 -0.1
v 0 0 -0.1
v 0 0.1 -0.1
v 0.1 0 -0.1
v 0.1 0.1 -0.1
v 0.1 0.6 -0.1
v 0.1 0.7 -0.1
v -0.3 0.2 -0.2
v -0.3 0.3 -0.2
v -0.3 0.4 -0.2
v -0.3 0.5 -0.2
v -0.2 0.1 -0.2
v -0.2 0.2 -0.2
v -0.2 0.3 -0.2
v -0.2 0.4 -0.2
v -0.2 0.5 -0.2
v -0.2 0.6 -0.2
v -0.1 0.1 -0.2
v -0.1 0.2 -0.2
v -0.1 0.5 -0.2
v 0 0.1 -0.2
v 0 0.2 -0.2
v 0 0.5 -0.2
v 0.1 0.2 -0.2
v 0.2 0.1 -0.2
v 0.2 0.2 -0.2
v 0.2 0.3 -0.2
v 0.2 0.4 -0.2
v 0.2 0.5 -0.2
v 0.2 0.6 -0.2
v 0.3 0.2 -0.2
v 0.3 0.3 -0.2
v 0.3 0.4 -0.2
v 0.3 0.5 -0.2
v -0.3 0.3 -0.3
v -0.3 0.4 -0.3
v -0.2 0.2 -0.3
v -0.2 0.3 -0.3
v -0.2 0.4 -0.3
v -0.2 0.5 -0.3
v -0.1 0.4 -0.3
v -0.1 0.5 -0.3
v 0 0.2 -0.3
v 0 0.3 -0.3
v 0 0.4 -0.3
v 0 0.5 -0.3
v 0.1 0.2 -0.3
v 0.1 0.3 -0.3
v 0.2 0.2 -0.3
v 0.2 0.3 -0.3
v 0.2 0.4 -0.3
v 0.2 0.5 -0.3
v 0.3 0.3 -0.3
v 0.3 0.4 -0.3
v -0.1 0 0.1
v 0.1 0 0.1
v -0.1 0 0
v 0 0 0
v -0.1 0 -0.1
v 0 0 -0.1
v 0.1 0 -0.1
v -0.2 0.1 0.2
v 0 0.1 0.2
v 0.2 0.1 0.2
v -0.1 0.1 0.1
v 0 0.1 0.1
v 0.1 0.1 0.1
v 0.2 0.1 0.1
v -0.1 0.1 0
v -0.2 0.1 -0.1
v -0.1 0.1 -0.1
v 0 0.1 -0.1
v 0.1 0.1 -0.1
v 0.2 0.1 -0.1
v -0.2 0.1 -0.2
v -0.1 0.1 -0.2
v 0 0.1 -0.2
v 0.2 0.1 -0.2
v -0.2 0.2 0.3
v -0.1 0.2 0.3
v 0.2 0.2 0.3
v -0.3 0.2 0.2
v -0.2 0.2 0.2
v -0.1 0.2 0.2
v 0 0.2 0.2
v 0.2 0.2 0.2
v 0.3 0.2 0.2
v -0.3 0.2 0.1
v -0.2 0.2 0.1
v 0.2 0.2 0.1
v -0.2 0.2 -0.1
v 0.2 0.2 -0.1
v -0.3 0.2 -0.2
v -0.2 0.2 -0.2
v -0.1 0.2 -0.2
v 0 0.2 -0.2
v 0.1 0.2 -0.2
v 0.2 0.2 -0.2
v 0.3 0.2 -0.2
v -0.2 0.2 -0.3
v 0 0.2 -0.3
v 0.1 0.2 -0.3
v 0.2 0.2 -0.3
v -0.3 0.3 0.3
v -0.2 0.3 0.3
v 0.2 0.3 0.3
v 0.3 0.3 0.3
v -0.3 0.3 0.2
v -0.2 0.3 0.2
v 0.2 0.3 0.2
v 0.3 0.3 0.2
v -0.3 0.3 -0.2
v -0.2 0.3 -0.2
v 0.2 0.3 -0.2
v 0.3 0.3 -0.2
v -0.3 0.3 -0.3
v -0.2 0.3 -0.3
v 0.2 0.3 -0.3
v 0.3 0.3 -0.3
v -0.3 0.4 0.3
v -0.2 0.4 0.3
v 0.2 0.4 0.3
v 0.3 0.4 0.3
v -0.3 0.4 0.2
v -0.2 0.4 0.2
v 0.2 0.4 0.2
v 0.3 0.4 0.2
v -0.3 0.4 -0.2
v -0.2 0.4 -0.2
v 0.2 0.4 -0.2
v 0.3 0.4 -0.2
v -0.3 0.4 -0.3
v -0.2 0.4 -0.3
v 0.2 0.4 -0.3
v 0.3 0.4 -0.3
v -0.2 0.5 0.3
v -0.1 0.5 0.3
v 0.2 0.5 0.3
v -0.3 0.5 0.2
v -0.2 0.5 0.2
v -0.1 0.5 0.2
v 0.2 0.5 0.2
v 0.3 0.5 0.2
v -0.2 0.5 0.1
v -0.3 0.5 0
v -0.2 0.5 0
v 0.2 0.5 0
v 0.3 0.5 0
v -0.3 0.5 -0.2
v -0.2 0.5 -0.2
v -0.1 0.5 -0.2
v 0 0.5 -0.2
v 0.2 0.5 -0.2
v 0.3 0.5 -0.2
v -0.2 0.5 -0.3
v -0.1 0.5 -0.3
v 0 0.5 -0.3
v 0.2 0.5 -0.3
v -0.2 0.6 0.2
v 0.2 0.6 0.2
v -0.2 0.6 0.1
v -0.1 0.6 0.1
v 0 0.6 0.1
v 0.1 0.6 0.1
v -0.2 0.6 0
v -0.1 0.6 0
v 0.1 0.6 0
v -0.1 0.6 -0.1
v 0.1 0.6 -0.1
v -0.2 0.6 -0.2
v 0.2 0.6 -0.2
v -0.1 0.7 0.1
v 0 0.7 0.1
v 0.1 0.7 0.1
v 0 0.7 0
v 0.1 0.7 0
v -0.1 0.7 -0.1
v 0.1 0.7 -0.1

# faces
f 5/2/1 2/2/1 1/2/1
f 6/1/1 3/1/1 2/1/1
f 6/2/1 2/2/1 5/2/1
f 7/1/1 3/1/1 6/1/1
f 9/1/1 5/1/1 4/1/1
f 9/1/1 8/1/1 7/1/1
f 9/1/1 7/1/1 6/1/1
f 9/1/1 6/1/1 5/1/1
f 10/1/1 8/1/1 9/1/1
f 11/1/1 8/1/1 10/1/1
f 12/1/1 8/1/1 11/1/1
f 13/1/1 8/1/1 12/1/1
f 14/1/1 11/1/1 10/1/1
f 15/2/1 12/2/1 11/2/1
f 15/1/1 11/1/1 14/1/1
f 16/2/1 12/2/1 15/2/1
f 21/1/1 18/1/1 17/1/1
f 22/1/1 18/1/1 21/1/1
f 23/2/1 19/2/1 18/2/1
f 23/1/1 18/1/1 22/1/1
f 24/2/1 19/2/1 23/2/1
f 26/2/1 21/2/1 20/2/1
f 27/2/1 21/2/1 26/2/1
f 28/1/1 25/1/1 24/1/1
f 29/1/1 25/1/1 28/1/1
f 34/2/1 31/2/1 30/2/1
f 35/2/1 31/2/1 34/2/1
f 38/1/1 33/1/1 32/1/1
f 39/1/1 33/1/1 38/1/1
f 40/1/1 36/1/1 35/1/1
f 41/2/1 37/2/1 36/2/1
f 41/1/1 36/1/1 40/1/1
f 42/1/1 38/1/1 37/1/1
f 42/2/1 37/2/1 41/2/1
f 43/1/1 38/1/1 42/1/1
f 47/1/1 45/1/1 44/1/1
f 48/2/1 46/2/1 45/2/1
f 48/1/1 45/1/1 47/1/1
f 49/2/1 46/2/1 48/2/1
f 53/1/1 51/1/1 50/1/1
f 53/1/1 52/1/1 51/1/1
f 54/1/1 52/1/1 53/1/1
f 55/1/2 56/1/2 57/1/2
f 57/1/2 56/1/2 58/1/2
f 59/2/2 60/2/2 62/2/2
f 60/1/2 61/1/2 63/1/2
f 62/2/2 60/2/2 63/2/2
f 63/1/2 61/1/2 64/1/2
f 65/2/2 66/2/2 70/2/2
f 66/1/2 67/1/2 71/1/2
f 70/2/2 66/2/2 71/2/2
f 67/2/2 68/2/2 72/2/2
f 71/1/2 67/1/2 72/1/2
f 72/2/2 68/2/2 73/2/2
f 69/1/2 70/1/2 75/1/2
f 75/1/2 70/1/2 76/1/2
f 73/1/2 74/1/2 77/1/2
f 77/1/2 74/1/2 78/1/2
f 79/1/2 80/1/2 83/1/2
f 83/1/2 80/1/2 84/1/2
f 81/1/2 82/1/2 86/1/2
f 86/1/2 82/1/2 87/1/2
f 84/1/2 85/1/2 88/1/2
f 85/1/2 86/1/2 88/1/2
f 88/1/2 86/1/2 89/1/2
f 90/1/2 91/1/2 93/1/2
f 93/1/2 91/1/2 94/1/2
f 94/1/2 91/1/2 95/1/2
f 92/2/2 93/2/2 97/2/2
f 93/2/2 94/2/2 97/2/2
f 97/2/2 94/2/2 98/2/2
f 95/1/2 96/1/2 99/1/2
f 98/2/2 94/2/2 99/2/2
f 94/1/2 95/1/2 99/1/2
f 99/1/2 96/1/2 100/1/2
f 100/1/2 96/1/2 101/1/2
f 101/1/2 96/1/2 102/1/2
f 98/1/2 99/1/2 103/1/2
f 99/1/2 100/1/2 103/1/2
f 100/2/2 101/2/2 104/2/2
f 103/1/2 100/1/2 104/1/2
f 104/2/2 101/2/2 105/2/2
f 109/1/3 107/1/3 106/1/3
f 110/1/3 107/1/3 109/1/3
f 112/2/3 109/2/3 108/2/3
f 113/1/3 110/1/3 109/1/3
f 113/2/3 109/2/3 112/2/3
f 114/2/3 111/2/3 110/2/3
f 114/1/3 110/1/3 113/1/3
f 115/2/3 111/2/3 114/2/3
f 116/1/3 113/1/3 112/1/3
f 116/1/3 114/1/3 113/1/3
f 116/1/3 115/1/3 114/1/3
f 117/1/3 115/1/3 116/1/3
f 118/1/3 115/1/3 117/1/3
f 119/1/3 115/1/3 118/1/3
f 120/2/3 118/2/3 117/2/3
f 121/2/3 118/2/3 120/2/3
f 127/2/3 123/2/3 122/2/3
f 128/2/3 123/2/3 127/2/3
f 129/1/3 125/1/3 124/1/3
f 130/1/3 125/1/3 129/1/3
f 132/1/3 127/1/3 126/1/3
f 133/1/3 131/1/3 130/1/3
f 134/1/3 132/1/3 126/1/3
f 135/1/3 132/1/3 134/1/3
f 136/2/3 135/2/3 134/2/3
f 137/2/3 135/2/3 136/2/3
f 140/1/3 131/1/3 133/1/3
f 141/1/3 131/1/3 140/1/3
f 142/1/3 138/1/3 137/1/3
f 143/1/3 138/1/3 142/1/3
f 144/1/3 140/1/3 139/1/3
f 145/1/3 140/1/3 144/1/3
f 150/1/3 147/1/3 146/1/3
f 151/1/3 149/1/3 148/1/3
f 152/1/3 149/1/3 151/1/3
f 153/1/3 150/1/3 146/1/3
f 154/1/3 150/1/3 153/1/3
f 155/2/3 152/2/3 151/2/3
f 156/2/3 152/2/3 155/2/3
f 157/2/4 158/2/4 161/2/4
f 161/2/4 158/2/4 162/2/4
f 161/1/4 162/1/4 163/1/4
f 163/1/4 162/1/4 164/1/4
f 159/1/4 160/1/4 165/1/4
f 165/1/4 160/1/4 166/1/4
f 167/1/4 168/1/4 172/1/4
f 172/1/4 168/1/4 173/1/4
f 169/2/4 170/2/4 174/2/4
f 174/2/4 170/2/4 175/2/4
f 171/2/4 172/2/4 177/2/4
f 177/2/4 172/2/4 178/2/4
f 175/1/4 176/1/4 179/1/4
f 177/1/4 178/1/4 180/1/4
f 180/1/4 178/1/4 181/1/4
f 179/1/4 176/1/4 182/1/4
f 180/2/4 181/2/4 183/2/4
f 180/2/4 183/2/4 184/2/4
f 184/2/4 183/2/4 185/2/4
f 182/1/4 176/1/4 188/1/4
f 188/1/4 176/1/4 189/1/4
f 185/1/4 186/1/4 190/1/4
f 190/1/4 186/1/4 191/1/4
f 187/2/4 188/2/4 192/2/4
f 192/2/4 188/2/4 193/2/4
f 194/1/4 195/1/4 197/1/4
f 197/1/4 195/1/4 198/1/4
f 196/1/4 197/1/4 200/1/4
f 198/1/4 199/1/4 200/1/4
f 197/1/4 198/1/4 200/1/4
f 200/1/4 199/1/4 201/1/4
f 196/1/4 200/1/4 202/1/4
f 202/1/4 200/1/4 203/1/4
f 200/2/4 201/2/4 204/2/4
f 203/1/4 200/1/4 204/1/4
f 204/2/4 201/2/4 205/2/4
f 202/2/4 203/2/4 206/2/4
f 203/1/4 204/1/4 207/1/4
f 206/2/4 203/2/4 207/2/4
f 204/1/4 205/1/4 207/1/4
f 206/1/4 207/1/4 208/1/4
f 207/1/4 205/1/4 209/1/4
f 208/1/4 207/1/4 209/1/4
f 209/1/4 205/1/4 210/1/4
f 210/1/4 205/1/4 211/1/4
f 209/1/4 210/1/4 212/1/4
f 212/1/4 210/1/4 213/1/4
f 216/1/5 215/1/5 214/1/5
f 217/1/5 215/1/5 216/1/5
f 218/2/5 217/2/5 216/2/5
f 219/1/5 215/1/5 217/1/5
f 219/2/5 217/2/5 218/2/5
f 220/1/5 215/1/5 219/1/5
f 224/1/5 222/1/5 221/1/5
f 225/2/5 223/2/5 222/2/5
f 225/1/5 222/1/5 224/1/5
f 226/2/5 223/2/5 225/2/5
f 227/2/5 223/2/5 226/2/5
f 228/1/5 224/1/5 221/1/5
f 229/1/5 228/1/5 221/1/5
f 230/1/5 228/1/5 229/1/5
f 232/1/5 227/1/5 226/1/5
f 233/1/5 227/1/5 232/1/5
f 234/2/5 230/2/5 229/2/5
f 235/1/5 231/1/5 230/1/5
f 235/2/5 230/2/5 234/2/5
f 236/2/5 232/2/5 231/2/5
f 236/1/5 231/1/5 235/1/5
f 236/2/5 233/2/5 232/2/5
f 237/2/5 233/2/5 236/2/5
f 242/2/5 239/2/5 238/2/5
f 243/1/5 240/1/5 239/1/5
f 243/2/5 239/2/5 242/2/5
f 244/1/5 240/1/5 243/1/5
f 245/1/5 240/1/5 244/1/5
f 247/2/5 242/2/5 241/2/5
f 248/2/5 242/2/5 247/2/5
f 249/1/5 246/1/5 245/1/5
f 250/1/5 248/1/5 247/1/5
f 251/1/5 246/1/5 249/1/5
f 252/1/5 250/1/5 247/1/5
f 253/1/5 250/1/5 252/1/5
f 257/1/5 246/1/5 251/1/5
f 258/1/5 246/1/5 257/1/5
f 259/1/5 254/1/5 253/1/5
f 259/1/5 255/1/5 254/1/5
f 260/2/5 256/2/5 255/2/5
f 260/1/5 255/1/5 259/1/5
f 261/1/5 257/1/5 256/1/5
f 261/2/5 256/2/5 260/2/5
f 262/1/5 257/1/5 261/1/5
f 267/1/5 264/1/5 263/1/5
f 268/1/5 264/1/5 267/1/5
f 269/2/5 266/2/5 265/2/5
f 270/2/5 266/2/5 269/2/5
f 275/1/5 272/1/5 271/1/5
f 276/1/5 272/1/5 275/1/5
f 277/1/5 274/1/5 273/1/5
f 278/1/5 274/1/5 277/1/5
f 279/1/6 280/1/6 283/1/6
f 283/1/6 280/1/6 284/1/6
f 281/2/6 282/2/6 285/2/6
f 285/2/6 282/2/6 286/2/6
f 287/1/6 288/1/6 291/1/6
f 291/1/6 288/1/6 292/1/6
f 289/1/6 290/1/6 293/1/6
f 293/1/6 290/1/6 294/1/6
f 295/2/6 296/2/6 299/2/6
f 296/1/6 297/1/6 300/1/6
f 299/2/6 296/2/6 300/2/6
f 300/1/6 297/1/6 301/1/6
f 298/1/6 299/1/6 303/1/6
f 298/1/6 303/1/6 304/1/6
f 304/1/6 303/1/6 305/1/6
f 301/1/6 302/1/6 306/1/6
f 306/1/6 302/1/6 307/1/6
f 304/2/6 305/2/6 308/2/6
f 308/2/6 305/2/6 309/2/6
f 306/2/6 307/2/6 312/2/6
f 312/2/6 307/2/6 313/2/6
f 309/1/6 310/1/6 314/1/6
f 310/2/6 311/2/6 315/2/6
f 314/1/6 310/1/6 315/1/6
f 311/1/6 312/1/6 316/1/6
f 315/2/6 311/2/6 316/2/6
f 316/1/6 312/1/6 317/1/6
f 318/1/6 319/1/6 320/1/6
f 320/1/6 319/1/6 321/1/6
f 321/1/6 319/1/6 322/1/6
f 322/1/6 319/1/6 323/1/6
f 320/2/6 321/2/6 324/2/6
f 324/2/6 321/2/6 325/2/6
f 323/1/6 319/1/6 326/1/6
f 324/1/6 325/1/6 327/1/6
f 326/1/6 319/1/6 328/1/6
f 324/1/6 327/1/6 329/1/6
f 327/1/6 328/1/6 329/1/6
f 328/1/6 319/1/6 330/1/6
f 329/1/6 328/1/6 330/1/6
f 331/1/6 332/1/6 334/1/6
f 332/2/6 333/2/6 334/2/6
f 334/2/6 333/2/6 335/2/6
f 331/1/6 334/1/6 336/1/6
f 334/1/6 335/1/6 336/1/6
f 336/1/6 335/1/6 337/1/6
