# MagicaVoxel @ Ephtracy

# group
o 

# material
mtllib PlayerBody.mtl
usemtl palette

# normals
vn -1 0 0
vn 1 0 0
vn 0 0 1
vn 0 0 -1
vn 0 -1 0
vn 0 1 0

# texcoords
vt 0.0214844 0.5
vt 0.0683594 0.5
vt 0.208984 0.5
vt 0.876953 0.5

# verts
v -0.3 0.6 0.3
v -0.3 0.6 0
v -0.3 0.9 0.3
v -0.3 0.9 0
v -0.2 0 0.2
v -0.2 0 0
v -0.2 0.1 0.2
v -0.2 0.1 0.1
v -0.2 0.3 0.3
v -0.2 0.3 0.1
v -0.2 0.3 0
v -0.2 0.3 -0.4
v -0.2 0.4 -0.3
v -0.2 0.4 -0.4
v -0.2 0.6 0.3
v -0.2 0.6 0
v -0.2 0.6 -0.3
v -0.1 0.9 0.2
v -0.1 0.9 0.1
v -0.1 1 0.2
v -0.1 1 0.1
v 0.1 0 0.2
v 0.1 0 0
v 0.1 0.1 0.2
v 0.1 0.1 0.1
v 0.1 0.3 0.1
v 0.1 0.3 0
v -0.1 0 0.2
v -0.1 0 0
v -0.1 0.1 0.2
v -0.1 0.1 0.1
v -0.1 0.3 0.1
v -0.1 0.3 0
v 0.1 0.9 0.2
v 0.1 0.9 0.1
v 0.1 1 0.2
v 0.1 1 0.1
v 0.2 0 0.2
v 0.2 0 0
v 0.2 0.1 0.2
v 0.2 0.1 0.1
v 0.2 0.3 0.3
v 0.2 0.3 0.1
v 0.2 0.3 0
v 0.2 0.3 -0.4
v 0.2 0.4 -0.3
v 0.2 0.4 -0.4
v 0.2 0.6 0.3
v 0.2 0.6 0
v 0.2 0.6 -0.3
v 0.3 0.6 0.3
v 0.3 0.6 0
v 0.3 0.9 0.3
v 0.3 0.9 0
v -0.3 0.6 0.3
v -0.3 0.9 0.3
v -0.2 0.3 0.3
v -0.2 0.6 0.3
v -0.2 0.7 0.3
v -0.2 0.8 0.3
v -0.1 0.6 0.3
v -0.1 0.7 0.3
v -0.1 0.8 0.3
v 0.1 0.6 0.3
v 0.1 0.7 0.3
v 0.1 0.8 0.3
v 0.2 0.3 0.3
v 0.2 0.6 0.3
v 0.2 0.7 0.3
v 0.2 0.8 0.3
v 0.3 0.6 0.3
v 0.3 0.9 0.3
v -0.2 0 0.2
v -0.2 0.1 0.2
v -0.1 0 0.2
v -0.1 0.1 0.2
v -0.1 0.9 0.2
v -0.1 1 0.2
v 0.1 0 0.2
v 0.1 0.1 0.2
v 0.1 0.9 0.2
v 0.1 1 0.2
v 0.2 0 0.2
v 0.2 0.1 0.2
v -0.2 0.1 0.1
v -0.2 0.3 0.1
v -0.1 0.1 0.1
v -0.1 0.3 0.1
v 0.1 0.1 0.1
v 0.1 0.3 0.1
v 0.2 0.1 0.1
v 0.2 0.3 0.1
v -0.1 0.9 0.1
v -0.1 1 0.1
v 0.1 0.9 0.1
v 0.1 1 0.1
v -0.3 0.6 0
v -0.3 0.9 0
v -0.2 0 0
v -0.2 0.3 0
v -0.2 0.6 0
v -0.1 0 0
v -0.1 0.3 0
v 0.1 0 0
v 0.1 0.3 0
v 0.2 0 0
v 0.2 0.3 0
v 0.2 0.6 0
v 0.3 0.6 0
v 0.3 0.9 0
v -0.2 0.4 -0.3
v -0.2 0.6 -0.3
v 0.2 0.4 -0.3
v 0.2 0.6 -0.3
v -0.2 0.3 -0.4
v -0.2 0.4 -0.4
v 0.2 0.3 -0.4
v 0.2 0.4 -0.4
v -0.2 0 0.2
v -0.1 0 0.2
v 0.1 0 0.2
v 0.2 0 0.2
v -0.2 0 0
v -0.1 0 0
v 0.1 0 0
v 0.2 0 0
v -0.2 0.3 0.3
v 0.2 0.3 0.3
v -0.2 0.3 0.1
v -0.1 0.3 0.1
v 0.1 0.3 0.1
v 0.2 0.3 0.1
v -0.2 0.3 0
v -0.1 0.3 0
v 0.1 0.3 0
v 0.2 0.3 0
v -0.2 0.3 -0.4
v 0.2 0.3 -0.4
v -0.3 0.6 0.3
v -0.2 0.6 0.3
v 0.2 0.6 0.3
v 0.3 0.6 0.3
v -0.3 0.6 0
v -0.2 0.6 0
v 0.2 0.6 0
v 0.3 0.6 0
v -0.2 0.1 0.2
v -0.1 0.1 0.2
v 0.1 0.1 0.2
v 0.2 0.1 0.2
v -0.2 0.1 0.1
v -0.1 0.1 0.1
v 0.1 0.1 0.1
v 0.2 0.1 0.1
v -0.2 0.4 -0.3
v 0.2 0.4 -0.3
v -0.2 0.4 -0.4
v 0.2 0.4 -0.4
v -0.2 0.6 0
v 0.2 0.6 0
v -0.2 0.6 -0.3
v 0.2 0.6 -0.3
v -0.3 0.9 0.3
v 0.3 0.9 0.3
v -0.1 0.9 0.2
v 0.1 0.9 0.2
v -0.1 0.9 0.1
v 0.1 0.9 0.1
v -0.3 0.9 0
v 0.3 0.9 0
v -0.1 1 0.2
v 0.1 1 0.2
v -0.1 1 0.1
v 0.1 1 0.1

# faces
f 3/1/1 2/1/1 1/1/1
f 4/1/1 2/1/1 3/1/1
f 7/3/1 6/3/1 5/3/1
f 8/3/1 6/3/1 7/3/1
f 10/3/1 6/3/1 8/3/1
f 11/3/1 6/3/1 10/3/1
f 13/1/1 10/1/1 9/1/1
f 13/1/1 12/1/1 11/1/1
f 13/1/1 11/1/1 10/1/1
f 14/1/1 12/1/1 13/1/1
f 15/1/1 13/1/1 9/1/1
f 16/1/1 13/1/1 15/1/1
f 17/1/1 13/1/1 16/1/1
f 20/1/1 19/1/1 18/1/1
f 21/1/1 19/1/1 20/1/1
f 24/3/1 23/3/1 22/3/1
f 25/3/1 23/3/1 24/3/1
f 26/3/1 23/3/1 25/3/1
f 27/3/1 23/3/1 26/3/1
f 28/3/2 29/3/2 30/3/2
f 30/3/2 29/3/2 31/3/2
f 31/3/2 29/3/2 32/3/2
f 32/3/2 29/3/2 33/3/2
f 34/1/2 35/1/2 36/1/2
f 36/1/2 35/1/2 37/1/2
f 38/3/2 39/3/2 40/3/2
f 40/3/2 39/3/2 41/3/2
f 41/3/2 39/3/2 43/3/2
f 43/3/2 39/3/2 44/3/2
f 42/1/2 43/1/2 46/1/2
f 44/1/2 45/1/2 46/1/2
f 43/1/2 44/1/2 46/1/2
f 46/1/2 45/1/2 47/1/2
f 42/1/2 46/1/2 48/1/2
f 48/1/2 46/1/2 49/1/2
f 49/1/2 46/1/2 50/1/2
f 51/1/2 52/1/2 53/1/2
f 53/1/2 52/1/2 54/1/2
f 58/1/3 56/1/3 55/1/3
f 59/1/3 56/1/3 58/1/3
f 60/1/3 56/1/3 59/1/3
f 61/1/3 58/1/3 57/1/3
f 61/1/3 59/1/3 58/1/3
f 62/4/3 60/4/3 59/4/3
f 62/1/3 59/1/3 61/1/3
f 63/1/3 56/1/3 60/1/3
f 63/4/3 60/4/3 62/4/3
f 64/2/3 62/2/3 61/2/3
f 64/1/3 61/1/3 57/1/3
f 65/1/3 63/1/3 62/1/3
f 65/2/3 62/2/3 64/2/3
f 66/1/3 56/1/3 63/1/3
f 66/1/3 63/1/3 65/1/3
f 67/1/3 65/1/3 64/1/3
f 67/1/3 64/1/3 57/1/3
f 68/1/3 65/1/3 67/1/3
f 69/4/3 66/4/3 65/4/3
f 69/1/3 65/1/3 68/1/3
f 70/1/3 56/1/3 66/1/3
f 70/4/3 66/4/3 69/4/3
f 71/1/3 69/1/3 68/1/3
f 71/1/3 70/1/3 69/1/3
f 72/1/3 56/1/3 70/1/3
f 72/1/3 70/1/3 71/1/3
f 75/3/3 74/3/3 73/3/3
f 76/3/3 74/3/3 75/3/3
f 81/1/3 78/1/3 77/1/3
f 82/1/3 78/1/3 81/1/3
f 83/3/3 80/3/3 79/3/3
f 84/3/3 80/3/3 83/3/3
f 87/3/3 86/3/3 85/3/3
f 88/3/3 86/3/3 87/3/3
f 91/3/3 90/3/3 89/3/3
f 92/3/3 90/3/3 91/3/3
f 93/1/4 94/1/4 95/1/4
f 95/1/4 94/1/4 96/1/4
f 97/1/4 98/1/4 101/1/4
f 99/3/4 100/3/4 102/3/4
f 102/3/4 100/3/4 103/3/4
f 104/3/4 105/3/4 106/3/4
f 106/3/4 105/3/4 107/3/4
f 101/1/4 98/1/4 108/1/4
f 108/1/4 98/1/4 109/1/4
f 109/1/4 98/1/4 110/1/4
f 111/1/4 112/1/4 113/1/4
f 113/1/4 112/1/4 114/1/4
f 115/1/4 116/1/4 117/1/4
f 117/1/4 116/1/4 118/1/4
f 123/3/5 120/3/5 119/3/5
f 124/3/5 120/3/5 123/3/5
f 125/3/5 122/3/5 121/3/5
f 126/3/5 122/3/5 125/3/5
f 129/1/5 128/1/5 127/1/5
f 130/1/5 128/1/5 129/1/5
f 131/1/5 128/1/5 130/1/5
f 132/1/5 128/1/5 131/1/5
f 134/1/5 131/1/5 130/1/5
f 135/1/5 131/1/5 134/1/5
f 137/1/5 134/1/5 133/1/5
f 137/1/5 136/1/5 135/1/5
f 137/1/5 135/1/5 134/1/5
f 138/1/5 136/1/5 137/1/5
f 143/1/5 140/1/5 139/1/5
f 144/1/5 140/1/5 143/1/5
f 145/1/5 142/1/5 141/1/5
f 146/1/5 142/1/5 145/1/5
f 147/3/6 148/3/6 151/3/6
f 151/3/6 148/3/6 152/3/6
f 149/3/6 150/3/6 153/3/6
f 153/3/6 150/3/6 154/3/6
f 155/1/6 156/1/6 157/1/6
f 157/1/6 156/1/6 158/1/6
f 159/1/6 160/1/6 161/1/6
f 161/1/6 160/1/6 162/1/6
f 163/1/6 164/1/6 165/1/6
f 165/1/6 164/1/6 166/1/6
f 163/1/6 165/1/6 167/1/6
f 166/1/6 164/1/6 168/1/6
f 163/1/6 167/1/6 169/1/6
f 167/1/6 168/1/6 169/1/6
f 168/1/6 164/1/6 170/1/6
f 169/1/6 168/1/6 170/1/6
f 171/1/6 172/1/6 173/1/6
f 173/1/6 172/1/6 174/1/6
